<svg width="50" height="50" viewBox="0 0 50 50" fill="none" xmlns="http://www.w3.org/2000/svg">
<path d="M31 34H36V39H31V34Z" fill="white"/>
<path d="M16 19H21V24H16V19Z" fill="white"/>
<path d="M11 14H16V19H11V14Z" fill="white"/>
<path d="M21 24H26V29H21V24Z" fill="white"/>
<path d="M26 29H31V34H26V29Z" fill="white"/>
<path d="M31 19V14H36V19H31Z" fill="white"/>
<path d="M16 34V29H21V34H16Z" fill="white"/>
<path d="M11 39V34H16V39H11Z" fill="white"/>
<path d="M21 29V24H26V29H21Z" fill="white"/>
<path d="M26 24V19H31V24H26Z" fill="white"/>
</svg>
