<svg width="272" height="70" viewBox="0 0 272 70" fill="none" xmlns="http://www.w3.org/2000/svg">
<path d="M18 13H38" stroke="white" stroke-width="4"/>
<line x1="50" y1="25" x2="50" y2="45" stroke="white" stroke-width="4"/>
<line y1="-2" x2="20" y2="-2" transform="matrix(-1.10305e-08 1 1 1.28918e-08 8 25)" stroke="white" stroke-width="4"/>
<g clip-path="url(#clip0_59_1998)">
<line y1="-2" x2="6" y2="-2" transform="matrix(-1 0 0 1 18 19)" stroke="white" stroke-width="4"/>
<line y1="-2" x2="10" y2="-2" transform="matrix(-1.10305e-08 1 1 1.28918e-08 12 15)" stroke="white" stroke-width="4"/>
</g>
<g clip-path="url(#clip1_59_1998)">
<line x1="38" y1="17" x2="44" y2="17" stroke="white" stroke-width="4"/>
<line x1="46" y1="15" x2="46" y2="25" stroke="white" stroke-width="4"/>
</g>
<path d="M18 57H38" stroke="white" stroke-width="4"/>
<g clip-path="url(#clip2_59_1998)">
<line x1="18" y1="53" x2="12" y2="53" stroke="white" stroke-width="4"/>
<line x1="10" y1="55" x2="10" y2="45" stroke="white" stroke-width="4"/>
</g>
<g clip-path="url(#clip3_59_1998)">
<line y1="-2" x2="6" y2="-2" transform="matrix(1 0 0 -1 38 51)" stroke="white" stroke-width="4"/>
<line y1="-2" x2="10" y2="-2" transform="matrix(1.10305e-08 -1 -1 -1.28918e-08 44 55)" stroke="white" stroke-width="4"/>
</g>
<path d="M90 13H110" stroke="#FFFF00" stroke-width="4"/>
<line x1="122" y1="25" x2="122" y2="45" stroke="#FFFF00" stroke-width="4"/>
<line y1="-2" x2="20" y2="-2" transform="matrix(-1.10305e-08 1 1 1.28918e-08 80 25)" stroke="#FFFF00" stroke-width="4"/>
<g clip-path="url(#clip4_59_1998)">
<line y1="-2" x2="6" y2="-2" transform="matrix(-1 0 0 1 90 19)" stroke="#FFFF00" stroke-width="4"/>
<line y1="-2" x2="10" y2="-2" transform="matrix(-1.10305e-08 1 1 1.28918e-08 84 15)" stroke="#FFFF00" stroke-width="4"/>
</g>
<g clip-path="url(#clip5_59_1998)">
<line x1="110" y1="17" x2="116" y2="17" stroke="#FFFF00" stroke-width="4"/>
<line x1="118" y1="15" x2="118" y2="25" stroke="#FFFF00" stroke-width="4"/>
</g>
<path d="M90 57H110" stroke="#FFFF00" stroke-width="4"/>
<g clip-path="url(#clip6_59_1998)">
<line x1="90" y1="53" x2="84" y2="53" stroke="#FFFF00" stroke-width="4"/>
<line x1="82" y1="55" x2="82" y2="45" stroke="#FFFF00" stroke-width="4"/>
</g>
<g clip-path="url(#clip7_59_1998)">
<line y1="-2" x2="6" y2="-2" transform="matrix(1 0 0 -1 110 51)" stroke="#FFFF00" stroke-width="4"/>
<line y1="-2" x2="10" y2="-2" transform="matrix(1.10305e-08 -1 -1 -1.28918e-08 116 55)" stroke="#FFFF00" stroke-width="4"/>
</g>
<rect x="84" y="19" width="6" height="32" fill="#FFFF00"/>
<rect x="80" y="25" width="4" height="20" fill="#FFFF00"/>
<rect x="110" y="19" width="6" height="32" fill="#FFFF00"/>
<rect x="90" y="15" width="20" height="40" fill="#FFFF00"/>
<rect x="116" y="25" width="4" height="20" fill="#FFFF00"/>
<rect x="84" y="19" width="6" height="32" fill="#FFFF00"/>
<rect x="80" y="25" width="4" height="20" fill="#FFFF00"/>
<rect x="110" y="19" width="6" height="32" fill="#FFFF00"/>
<rect x="90" y="15" width="20" height="40" fill="#FFFF00"/>
<rect x="116" y="25" width="4" height="20" fill="#FFFF00"/>
<path d="M162 13H182" stroke="white" stroke-width="4"/>
<line x1="194" y1="25" x2="194" y2="45" stroke="white" stroke-width="4"/>
<line y1="-2" x2="20" y2="-2" transform="matrix(-1.10305e-08 1 1 1.28918e-08 152 25)" stroke="white" stroke-width="4"/>
<g clip-path="url(#clip8_59_1998)">
<line y1="-2" x2="6" y2="-2" transform="matrix(-1 0 0 1 162 19)" stroke="white" stroke-width="4"/>
<line y1="-2" x2="10" y2="-2" transform="matrix(-1.10305e-08 1 1 1.28918e-08 156 15)" stroke="white" stroke-width="4"/>
</g>
<g clip-path="url(#clip9_59_1998)">
<line x1="182" y1="17" x2="188" y2="17" stroke="white" stroke-width="4"/>
<line x1="190" y1="15" x2="190" y2="25" stroke="white" stroke-width="4"/>
</g>
<path d="M162 57H182" stroke="white" stroke-width="4"/>
<g clip-path="url(#clip10_59_1998)">
<line x1="162" y1="53" x2="156" y2="53" stroke="white" stroke-width="4"/>
<line x1="154" y1="55" x2="154" y2="45" stroke="white" stroke-width="4"/>
</g>
<g clip-path="url(#clip11_59_1998)">
<line y1="-2" x2="6" y2="-2" transform="matrix(1 0 0 -1 182 51)" stroke="white" stroke-width="4"/>
<line y1="-2" x2="10" y2="-2" transform="matrix(1.10305e-08 -1 -1 -1.28918e-08 188 55)" stroke="white" stroke-width="4"/>
</g>
<path d="M234 13H254" stroke="#FF0000" stroke-width="4"/>
<line x1="266" y1="25" x2="266" y2="45" stroke="#FF0000" stroke-width="4"/>
<line y1="-2" x2="20" y2="-2" transform="matrix(-1.10305e-08 1 1 1.28918e-08 224 25)" stroke="#FF0000" stroke-width="4"/>
<g clip-path="url(#clip12_59_1998)">
<line y1="-2" x2="6" y2="-2" transform="matrix(-1 0 0 1 234 19)" stroke="#FF0000" stroke-width="4"/>
<line y1="-2" x2="10" y2="-2" transform="matrix(-1.10305e-08 1 1 1.28918e-08 228 15)" stroke="#FF0000" stroke-width="4"/>
</g>
<g clip-path="url(#clip13_59_1998)">
<line x1="254" y1="17" x2="260" y2="17" stroke="#FF0000" stroke-width="4"/>
<line x1="262" y1="15" x2="262" y2="25" stroke="#FF0000" stroke-width="4"/>
</g>
<path d="M234 57H254" stroke="#FF0000" stroke-width="4"/>
<g clip-path="url(#clip14_59_1998)">
<line x1="234" y1="53" x2="228" y2="53" stroke="#FF0000" stroke-width="4"/>
<line x1="226" y1="55" x2="226" y2="45" stroke="#FF0000" stroke-width="4"/>
</g>
<g clip-path="url(#clip15_59_1998)">
<line y1="-2" x2="6" y2="-2" transform="matrix(1 0 0 -1 254 51)" stroke="#FF0000" stroke-width="4"/>
<line y1="-2" x2="10" y2="-2" transform="matrix(1.10305e-08 -1 -1 -1.28918e-08 260 55)" stroke="#FF0000" stroke-width="4"/>
</g>
<rect x="228" y="19" width="6" height="32" fill="#FF0000"/>
<rect x="224" y="25" width="4" height="20" fill="#FF0000"/>
<rect x="254" y="19" width="6" height="32" fill="#FF0000"/>
<rect x="234" y="15" width="20" height="40" fill="#FF0000"/>
<rect x="260" y="25" width="4" height="20" fill="#FF0000"/>
<defs>
<clipPath id="clip0_59_1998">
<rect width="10" height="10" fill="white" transform="translate(8 15)"/>
</clipPath>
<clipPath id="clip1_59_1998">
<rect width="10" height="10" fill="white" transform="matrix(-1 0 0 1 48 15)"/>
</clipPath>
<clipPath id="clip2_59_1998">
<rect width="10" height="10" fill="white" transform="matrix(1 0 0 -1 8 55)"/>
</clipPath>
<clipPath id="clip3_59_1998">
<rect width="10" height="10" fill="white" transform="translate(48 55) rotate(-180)"/>
</clipPath>
<clipPath id="clip4_59_1998">
<rect width="10" height="10" fill="white" transform="translate(80 15)"/>
</clipPath>
<clipPath id="clip5_59_1998">
<rect width="10" height="10" fill="white" transform="matrix(-1 0 0 1 120 15)"/>
</clipPath>
<clipPath id="clip6_59_1998">
<rect width="10" height="10" fill="white" transform="matrix(1 0 0 -1 80 55)"/>
</clipPath>
<clipPath id="clip7_59_1998">
<rect width="10" height="10" fill="white" transform="translate(120 55) rotate(-180)"/>
</clipPath>
<clipPath id="clip8_59_1998">
<rect width="10" height="10" fill="white" transform="translate(152 15)"/>
</clipPath>
<clipPath id="clip9_59_1998">
<rect width="10" height="10" fill="white" transform="matrix(-1 0 0 1 192 15)"/>
</clipPath>
<clipPath id="clip10_59_1998">
<rect width="10" height="10" fill="white" transform="matrix(1 0 0 -1 152 55)"/>
</clipPath>
<clipPath id="clip11_59_1998">
<rect width="10" height="10" fill="white" transform="translate(192 55) rotate(-180)"/>
</clipPath>
<clipPath id="clip12_59_1998">
<rect width="10" height="10" fill="white" transform="translate(224 15)"/>
</clipPath>
<clipPath id="clip13_59_1998">
<rect width="10" height="10" fill="white" transform="matrix(-1 0 0 1 264 15)"/>
</clipPath>
<clipPath id="clip14_59_1998">
<rect width="10" height="10" fill="white" transform="matrix(1 0 0 -1 224 55)"/>
</clipPath>
<clipPath id="clip15_59_1998">
<rect width="10" height="10" fill="white" transform="translate(264 55) rotate(-180)"/>
</clipPath>
</defs>
</svg>
