<svg width="48" height="48" viewBox="0 0 48 48" fill="none" xmlns="http://www.w3.org/2000/svg">
<path d="M14 2H34" stroke="#FF0000" stroke-width="4"/>
<line x1="46" y1="14" x2="46" y2="34" stroke="#FF0000" stroke-width="4"/>
<line y1="-2" x2="20" y2="-2" transform="matrix(-1.10305e-08 1 1 1.28918e-08 4 14)" stroke="#FF0000" stroke-width="4"/>
<g clip-path="url(#clip0_94_3686)">
<line y1="-2" x2="6" y2="-2" transform="matrix(-1 0 0 1 14 8)" stroke="#FF0000" stroke-width="4"/>
<line y1="-2" x2="10" y2="-2" transform="matrix(-1.10305e-08 1 1 1.28918e-08 8 4)" stroke="#FF0000" stroke-width="4"/>
</g>
<g clip-path="url(#clip1_94_3686)">
<line x1="34" y1="6" x2="40" y2="6" stroke="#FF0000" stroke-width="4"/>
<line x1="42" y1="4" x2="42" y2="14" stroke="#FF0000" stroke-width="4"/>
</g>
<path d="M14 46H34" stroke="#FF0000" stroke-width="4"/>
<g clip-path="url(#clip2_94_3686)">
<line x1="14" y1="42" x2="8" y2="42" stroke="#FF0000" stroke-width="4"/>
<line x1="6" y1="44" x2="6" y2="34" stroke="#FF0000" stroke-width="4"/>
</g>
<g clip-path="url(#clip3_94_3686)">
<line y1="-2" x2="6" y2="-2" transform="matrix(1 0 0 -1 34 40)" stroke="#FF0000" stroke-width="4"/>
<line y1="-2" x2="10" y2="-2" transform="matrix(1.10305e-08 -1 -1 -1.28918e-08 40 44)" stroke="#FF0000" stroke-width="4"/>
</g>
<rect x="8" y="8" width="6" height="32" fill="#FF0000"/>
<rect x="4" y="14" width="4" height="20" fill="#FF0000"/>
<rect x="34" y="8" width="6" height="32" fill="#FF0000"/>
<rect x="14" y="4" width="20" height="40" fill="#FF0000"/>
<rect x="40" y="14" width="4" height="20" fill="#FF0000"/>
<defs>
<clipPath id="clip0_94_3686">
<rect width="10" height="10" fill="white" transform="translate(4 4)"/>
</clipPath>
<clipPath id="clip1_94_3686">
<rect width="10" height="10" fill="white" transform="matrix(-1 0 0 1 44 4)"/>
</clipPath>
<clipPath id="clip2_94_3686">
<rect width="10" height="10" fill="white" transform="matrix(1 0 0 -1 4 44)"/>
</clipPath>
<clipPath id="clip3_94_3686">
<rect width="10" height="10" fill="white" transform="translate(44 44) rotate(-180)"/>
</clipPath>
</defs>
</svg>
