<svg width="50" height="50" viewBox="0 0 50 50" fill="none" xmlns="http://www.w3.org/2000/svg">
<g clip-path="url(#clip0_13_4069)">
<rect x="29" y="18" width="3" height="15" fill="white"/>
<rect x="27" y="15" width="3" height="3" fill="white"/>
<rect x="27" y="33" width="3" height="3" fill="white"/>
<rect x="37" y="13" width="3" height="25" fill="white"/>
<rect x="35" y="10" width="3" height="3" fill="white"/>
<rect x="32" y="7.00001" width="3" height="3" fill="white"/>
<rect x="35" y="38" width="3" height="3" fill="white"/>
<rect x="32" y="41" width="3" height="3" fill="white"/>
<rect x="46" y="8.00001" width="3" height="35" fill="white"/>
<rect x="44" y="5.00001" width="3" height="3" fill="white"/>
<rect x="41" y="2.00001" width="3" height="3" fill="white"/>
<rect x="44" y="43" width="3" height="3" fill="white"/>
<rect x="41" y="46" width="3" height="3" fill="white"/>
<rect y="18" width="10" height="15" fill="white"/>
<rect x="10" y="13" width="3" height="25" fill="white"/>
<rect x="13" y="8.00001" width="3" height="35" fill="white"/>
<rect x="16" y="3.00001" width="3" height="45" fill="white"/>
<rect x="19" y="1.14441e-05" width="3" height="50" fill="white"/>
</g>
<defs>
<clipPath id="clip0_13_4069">
<rect width="50" height="50" fill="white"/>
</clipPath>
</defs>
</svg>
